
<svg width="27" height="27" viewBox="0 0 27 27" fill="none" xmlns="http://www.w3.org/2000/svg">
<path d="M13.6728 22.8843C15.8132 22.884 17.8928 22.1719 19.5841 20.8599C21.2753 19.548 22.4823 17.7109 23.0148 15.6378C23.5474 13.5647 23.3754 11.3733 22.5259 9.40866C21.6763 7.44403 20.1975 5.81772 18.3223 4.78578C16.447 3.75383 14.2818 3.37486 12.1676 3.70852C10.0533 4.04218 8.11002 5.06953 6.6437 6.62882C5.17738 8.18811 4.27128 10.1908 4.06806 12.3216C3.86485 14.4523 4.37604 16.5902 5.52118 18.3985L4.02591 22.8843L8.51171 21.3891C10.0548 22.3684 11.8452 22.8871 13.6728 22.8843Z" stroke="#263238" stroke-width="2.14375" stroke-linecap="round" stroke-linejoin="round"/>
</svg>
