<svg width="27" height="26" viewBox="0 0 27 26" fill="none" xmlns="http://www.w3.org/2000/svg">
<path d="M13.3435 3.17206C13.0311 3.17206 12.7218 3.23359 12.4331 3.35314C12.1445 3.47269 11.8823 3.64792 11.6614 3.86882C11.4405 4.08973 11.2652 4.35197 11.1457 4.6406C11.0261 4.92922 10.9646 5.23856 10.9646 5.55096C10.9646 5.86337 11.0261 6.17271 11.1457 6.46133C11.2652 6.74995 11.4405 7.0122 11.6614 7.23311C11.8823 7.45401 12.1445 7.62924 12.4331 7.74879C12.7218 7.86834 13.0311 7.92987 13.3435 7.92987C13.9744 7.92987 14.5795 7.67924 15.0256 7.23311C15.4718 6.78697 15.7224 6.18189 15.7224 5.55096C15.7224 4.92004 15.4718 4.31496 15.0256 3.86882C14.5795 3.42269 13.9744 3.17206 13.3435 3.17206ZM9.37866 5.55096C9.37866 4.49942 9.79639 3.49095 10.5399 2.7474C11.2835 2.00384 12.292 1.58612 13.3435 1.58612C14.395 1.58612 15.4035 2.00384 16.1471 2.7474C16.8906 3.49095 17.3083 4.49942 17.3083 5.55096C17.3083 6.60251 16.8906 7.61098 16.1471 8.35453C15.4035 9.09808 14.395 9.51581 13.3435 9.51581C12.292 9.51581 11.2835 9.09808 10.5399 8.35453C9.79639 7.61098 9.37866 6.60251 9.37866 5.55096ZM6.99976 13.4807C7.00081 13.191 7.03042 12.9108 7.08857 12.6401L4.00551 13.4648C3.70369 13.5458 3.42078 13.6854 3.17294 13.8757C2.92511 14.066 2.71719 14.3033 2.56108 14.574C2.40496 14.8447 2.30371 15.1435 2.2631 15.4533C2.2225 15.7632 2.24333 16.078 2.32441 16.3797L2.93976 18.6778C3.1052 19.2944 3.39304 19.8714 3.78614 20.3744C4.17925 20.8775 4.66957 21.2963 5.22791 21.6058C5.78625 21.9154 6.40118 22.1095 7.03608 22.1764C7.67098 22.2434 8.31287 22.1819 8.9235 21.9956C8.49934 21.5841 8.13475 21.1154 7.8403 20.6031C7.0932 20.6752 6.34473 20.4801 5.72795 20.0523C5.11118 19.6246 4.66608 18.992 4.47177 18.267L3.85484 15.9674C3.80061 15.7642 3.82929 15.5479 3.93458 15.3659C4.03986 15.1838 4.21312 15.0511 4.41626 14.9968L6.99976 14.3053V13.4807ZM17.9205 22.0415L17.7619 21.9971C18.1854 21.5848 18.5517 21.1169 18.8467 20.6031C19.5938 20.6752 20.3423 20.4801 20.9591 20.0523C21.5758 19.6246 22.0209 18.992 22.2152 18.267L22.8306 15.9674C22.8849 15.7645 22.8564 15.5483 22.7514 15.3663C22.6465 15.1843 22.4736 15.0514 22.2707 14.9968L19.6873 14.3053V13.4807C19.6862 13.191 19.6566 12.9108 19.5984 12.6401L22.6799 13.4648C22.9819 13.5456 23.265 13.6851 23.513 13.8753C23.761 14.0656 23.9691 14.3028 24.1253 14.5736C24.2816 14.8443 24.383 15.1431 24.4237 15.453C24.4644 15.763 24.4437 16.0779 24.3626 16.3797L23.7473 18.6778C23.4202 19.8962 22.6227 20.9348 21.53 21.5653C20.4374 22.1958 19.139 22.3681 17.9205 22.0415ZM3.82788 7.92987C3.82788 7.50925 3.99497 7.10586 4.29239 6.80844C4.58981 6.51102 4.9932 6.34393 5.41382 6.34393C5.83444 6.34393 6.23782 6.51102 6.53525 6.80844C6.83267 7.10586 6.99976 7.50925 6.99976 7.92987C6.99976 8.35049 6.83267 8.75388 6.53525 9.0513C6.23782 9.34872 5.83444 9.51581 5.41382 9.51581C4.9932 9.51581 4.58981 9.34872 4.29239 9.0513C3.99497 8.75388 3.82788 8.35049 3.82788 7.92987ZM5.41382 4.758C4.57258 4.758 3.76581 5.09217 3.17096 5.68702C2.57612 6.28186 2.24194 7.08864 2.24194 7.92987C2.24194 8.7711 2.57612 9.57788 3.17096 10.1727C3.76581 10.7676 4.57258 11.1017 5.41382 11.1017C6.25505 11.1017 7.06183 10.7676 7.65667 10.1727C8.25151 9.57788 8.58569 8.7711 8.58569 7.92987C8.58569 7.08864 8.25151 6.28186 7.65667 5.68702C7.06183 5.09217 6.25505 4.758 5.41382 4.758ZM21.2732 6.34393C20.8526 6.34393 20.4492 6.51102 20.1518 6.80844C19.8543 7.10586 19.6873 7.50925 19.6873 7.92987C19.6873 8.35049 19.8543 8.75388 20.1518 9.0513C20.4492 9.34872 20.8526 9.51581 21.2732 9.51581C21.6938 9.51581 22.0972 9.34872 22.3946 9.0513C22.692 8.75388 22.8591 8.35049 22.8591 7.92987C22.8591 7.50925 22.692 7.10586 22.3946 6.80844C22.0972 6.51102 21.6938 6.34393 21.2732 6.34393ZM18.1013 7.92987C18.1013 7.08864 18.4355 6.28186 19.0303 5.68702C19.6252 5.09217 20.432 4.758 21.2732 4.758C22.1144 4.758 22.9212 5.09217 23.516 5.68702C24.1109 6.28186 24.4451 7.08864 24.4451 7.92987C24.4451 8.7711 24.1109 9.57788 23.516 10.1727C22.9212 10.7676 22.1144 11.1017 21.2732 11.1017C20.432 11.1017 19.6252 10.7676 19.0303 10.1727C18.4355 9.57788 18.1013 8.7711 18.1013 7.92987ZM10.9646 11.1017C10.3337 11.1017 9.72859 11.3524 9.28246 11.7985C8.83633 12.2446 8.58569 12.8497 8.58569 13.4807V17.4455C8.58569 18.7073 9.08696 19.9175 9.97922 20.8098C10.8715 21.702 12.0817 22.2033 13.3435 22.2033C14.6054 22.2033 15.8155 21.702 16.7078 20.8098C17.6001 19.9175 18.1013 18.7073 18.1013 17.4455V13.4807C18.1013 12.8497 17.8507 12.2446 17.4046 11.7985C16.9584 11.3524 16.3533 11.1017 15.7224 11.1017H10.9646ZM10.1716 13.4807C10.1716 13.2703 10.2552 13.0686 10.4039 12.9199C10.5526 12.7712 10.7543 12.6877 10.9646 12.6877H15.7224C15.9327 12.6877 16.1344 12.7712 16.2831 12.9199C16.4318 13.0686 16.5154 13.2703 16.5154 13.4807V17.4455C16.5154 18.2867 16.1812 19.0935 15.5864 19.6883C14.9915 20.2832 14.1847 20.6174 13.3435 20.6174C12.5023 20.6174 11.6955 20.2832 11.1007 19.6883C10.5058 19.0935 10.1716 18.2867 10.1716 17.4455V13.4807Z" fill="#263238"/>
</svg>
