<svg width="27" height="27" viewBox="0 0 27 27" fill="none" xmlns="http://www.w3.org/2000/svg">
<path d="M13.2116 11.4844L18.517 12.9058M12.3581 14.6677L15.5414 15.5201M22.5867 14.392C21.9222 16.8689 21.5905 18.108 20.838 18.9109C20.2443 19.5449 19.476 19.9887 18.6302 20.1862C18.524 20.2111 18.416 20.2302 18.3061 20.2433C17.3011 20.3675 16.0741 20.039 13.8421 19.4415C11.3651 18.7769 10.1261 18.4452 9.32312 17.6928C8.68895 17.0987 8.24515 16.33 8.04783 15.4838C7.79739 14.4117 8.12911 13.1738 8.79367 10.6968L9.36156 8.57463L9.62958 7.58055C10.1294 5.75055 10.4655 4.74328 11.1103 4.05456C11.7041 3.42098 12.4724 2.97759 13.3181 2.78037C14.3902 2.52993 15.6292 2.86166 18.1073 3.52621C20.5832 4.18967 21.8222 4.5214 22.6252 5.27273C23.2595 5.86704 23.7034 6.63617 23.9005 7.48278C24.0773 8.24071 23.9631 9.08211 23.6467 10.386" stroke="#263238" stroke-width="1.64766" stroke-linecap="round"/>
<path d="M3.86917 18.7856C4.53262 21.2626 4.86545 22.5016 5.61788 23.3046C6.2116 23.9386 6.97991 24.3823 7.82574 24.5799C8.89782 24.8292 10.1369 24.4975 12.6149 23.834C15.0908 23.1706 16.3298 22.8388 17.1328 22.0864C17.6728 21.5806 18.0763 20.9466 18.3059 20.2432M9.62937 7.57935C9.24346 7.67967 8.8169 7.79317 8.34969 7.91986C5.87272 8.58332 4.63368 8.91505 3.83072 9.66638C3.19637 10.2607 2.75255 11.0298 2.55544 11.8764C2.37859 12.6344 2.49283 13.4758 2.80918 14.7796" stroke="#263238" stroke-width="1.64766" stroke-linecap="round" stroke-linejoin="round"/>
</svg>
