<svg width="37" height="37" viewBox="0 0 37 37" fill="none" xmlns="http://www.w3.org/2000/svg">
<g clip-path="url(#clip0_2559_2584)">
<path fill-rule="evenodd" clip-rule="evenodd" d="M23.4574 12.4428C22.9644 12.0781 18.7827 11.302 17.702 11.7132C17.0528 12.105 16.4425 12.549 15.871 13.0451C14.8086 13.7519 13.7888 14.5206 12.8168 15.3473C12.4576 15.6086 11.6174 16.0189 11.5466 16.5661C11.3308 17.6096 11.1722 18.6642 11.0714 19.725C10.9822 20.3744 10.9617 21.0314 11.0104 21.6851C11.0988 22.1567 11.6651 22.2538 12.2012 22.4934C12.7373 22.7331 15.2654 23.8144 17.6048 24.7651C19.0824 25.3782 21.2385 25.6719 22.0016 25.9474C22.0776 25.9748 22.1613 25.972 22.2354 25.9396C22.3095 25.9073 22.3684 25.8478 22.3999 25.7734C22.4315 25.6989 22.4334 25.6152 22.4053 25.5395C22.3771 25.4637 22.3209 25.4016 22.2484 25.3659C21.3412 23.9686 20.3071 22.658 19.1591 21.4508C18.27 20.6665 17.3113 19.9649 16.2947 19.3548C17.5075 18.6923 18.6288 17.8765 19.6325 16.9267C19.7548 17.4361 19.8441 17.9517 19.9003 18.4734C20.1989 19.901 20.6388 21.2952 21.2134 22.6357C21.2321 22.7288 21.2867 22.8108 21.3655 22.8638C21.4442 22.9169 21.5407 22.9368 21.634 22.9192C21.6803 22.9103 21.7244 22.8924 21.7637 22.8664C21.8031 22.8405 21.8369 22.807 21.8632 22.7679C21.8896 22.7288 21.908 22.6849 21.9173 22.6387C21.9266 22.5924 21.9267 22.5448 21.9175 22.4986C21.7179 20.6341 21.2853 18.802 20.6297 17.0452C20.5786 16.789 20.4897 16.5416 20.3652 16.3133C21.2747 15.4642 22.1626 14.6038 23.0928 13.82C23.2992 14.8219 23.0869 23.8851 22.6872 24.6984C22.6522 24.7832 22.6508 24.8782 22.6832 24.964C22.7156 25.0498 22.7794 25.1201 22.8617 25.1607C22.944 25.2013 23.0386 25.2091 23.1264 25.1825C23.2143 25.156 23.2887 25.0971 23.3347 25.0177C23.8006 24.1296 24.1112 17.3929 24.1453 16.3901C24.1396 15.1484 24.4476 13.1962 23.4574 12.4428ZM17.738 13.107C18.1147 12.833 18.2461 12.7374 18.9908 12.7851C18.9478 13.5538 18.9793 14.325 19.0851 15.0877C18.2826 14.9056 17.4708 14.7672 16.6534 14.673C16.327 14.6798 16.0006 14.662 15.6769 14.6198C15.9216 14.4221 16.1756 14.2373 16.439 14.0653C16.8907 13.7716 17.3237 13.4521 17.738 13.107ZM13.5178 16.311C14.8582 15.3359 14.6598 15.2658 14.7077 15.5526C14.6886 15.6736 14.2803 18.2615 14.3265 18.5092C13.8077 18.0086 13.2349 17.5671 12.6187 17.1928C12.8296 16.8202 13.1383 16.5122 13.5114 16.3022L13.5178 16.311ZM15.848 19.9745C19.2582 23.4284 17.7804 21.4892 21.0369 25.0817C18.7613 24.5133 18.6466 24.503 12.6153 21.5894C12.6153 21.5894 12.2266 21.497 12.0155 21.4094C11.9931 21.0104 12.1308 20.1868 12.1714 19.7822C12.228 19.1676 12.3265 18.5602 12.4667 17.9598C12.983 18.5407 13.5605 19.0638 14.1904 19.5191L12.8851 20.4687C12.0059 20.8806 12.3938 21.4691 12.7881 21.3297L15.6202 19.6982C15.6942 19.8184 15.7843 19.8869 15.8161 19.9307L15.848 19.9745ZM15.3285 18.7448C15.3794 18.0781 15.9025 16.3848 15.9271 15.8846C16.945 15.9211 18.6153 16.0993 18.82 16.1781C17.6932 17.0837 16.517 17.926 15.2967 18.701L15.3285 18.7448ZM20.0807 15.1672C19.8918 14.4227 19.7859 13.6595 19.765 12.8917C20.7135 12.9421 21.656 13.0468 22.5926 13.206C21.7038 13.8257 20.8405 14.4805 20.0488 15.1234L20.0807 15.1672ZM7.05233 17.8648C7.096 17.8851 7.1433 17.8963 7.19141 17.898C7.23952 17.8996 7.28747 17.8916 7.33242 17.8743C7.37736 17.8571 7.41839 17.831 7.45306 17.7976C7.48774 17.7642 7.51535 17.7242 7.53428 17.6799C7.5532 17.6356 7.56305 17.588 7.56324 17.5399C7.56342 17.4918 7.55394 17.4441 7.53536 17.3997C7.51677 17.3553 7.48946 17.315 7.45505 17.2814C7.42063 17.2477 7.37981 17.2213 7.335 17.2037C6.93354 16.9465 6.57111 16.6877 6.19753 16.4504C5.58866 16.1663 4.91206 16.0596 4.24531 16.1424C3.95858 16.1902 4.01118 16.4467 4.00562 16.5311C4.00969 17.2917 6.94002 17.8394 7.05233 17.8648ZM21.2723 7.46675C21.4966 5.16011 21.5534 6.61926 21.1206 4.49589C21.076 4.28721 20.9995 4.18209 20.9414 4.1574C20.8832 4.13272 20.6315 4.0077 20.4977 4.26578C20.2139 4.87552 20.1071 5.55199 20.1897 6.218C20.2655 6.67198 20.3938 7.08773 20.5149 7.54888C20.5181 7.60031 20.5317 7.65055 20.5549 7.69657C20.5781 7.74259 20.6104 7.78343 20.6498 7.81663C20.6892 7.84983 20.7349 7.87469 20.7842 7.88973C20.8335 7.90476 20.8853 7.90964 20.9366 7.90409C20.9878 7.89853 21.0374 7.88265 21.0823 7.8574C21.1272 7.83216 21.1666 7.79807 21.1979 7.75719C21.2293 7.71632 21.2521 7.66951 21.2649 7.61959C21.2777 7.56967 21.2802 7.51768 21.2723 7.46675ZM12.0788 24.6455C12.3416 24.4544 12.2898 23.9964 11.7657 23.9757C11.1631 24.034 10.5822 24.2318 10.0693 24.5534C9.66629 24.8466 8.14277 26.0486 8.21371 26.5329C8.22887 26.6826 8.35392 26.7256 8.50924 26.7734C8.93059 26.8554 11.5882 25.0024 12.0788 24.6455ZM29.1881 11.2213C27.9227 11.4512 26.7893 12.1467 26.0111 13.1706C25.8719 13.3697 25.7526 13.5821 25.6552 13.8047C25.5159 14.2945 25.9309 14.5151 26.2024 14.3176C27.2528 13.6561 28.203 12.8475 29.0241 11.9166C29.1306 11.8074 29.2294 11.6908 29.3195 11.5677C29.3092 11.3877 29.2645 11.3264 29.1881 11.2213ZM15.7476 27.35C15.3177 29.19 15.1606 27.9244 14.9836 32.1927C15.0218 32.3926 15.3086 32.6395 15.5769 32.2166C16.2487 30.7124 16.5555 29.0708 16.4724 27.4256C16.4686 27.3373 16.4332 27.2534 16.3727 27.189C16.3121 27.1247 16.2305 27.0842 16.1426 27.0751C16.0547 27.0659 15.9665 27.0886 15.894 27.1391C15.8215 27.1896 15.7695 27.2644 15.7476 27.35ZM29.4915 18.6915C28.8575 18.6303 28.1885 18.7419 27.6134 18.6511C27.0383 18.5604 26.9954 19.2749 27.4621 19.364C28.4468 19.6801 29.4509 19.9187 30.4745 20.0797C30.7406 20.1139 32.3383 20.0635 32.5398 19.9169C32.7413 19.7703 32.7245 19.5816 32.4816 19.4502C32.4394 19.3737 29.9049 18.7257 29.4915 18.6915Z" fill="#FFB50A"/>
</g>
<defs>
<clipPath id="clip0_2559_2584">
<rect width="26" height="26" fill="white" transform="translate(0 15.2952) rotate(-36.0345)"/>
</clipPath>
</defs>
</svg>
