<svg width="27" height="27" viewBox="0 0 27 27" fill="none" xmlns="http://www.w3.org/2000/svg">
<path d="M15.7476 16.5317H19.428V20.3018H15.7476V16.5317Z" stroke="#263238" stroke-width="1.36414" stroke-linecap="round" stroke-linejoin="round"/>
<path d="M19.5063 3.52649H19.2228C18.873 3.52649 18.5894 3.81007 18.5894 4.15988V6.6443C18.5894 6.99411 18.873 7.27769 19.2228 7.27769H19.5063C19.8561 7.27769 20.1397 6.99411 20.1397 6.6443V4.15988C20.1397 3.81007 19.8561 3.52649 19.5063 3.52649Z" stroke="#263238" stroke-width="1.36414" stroke-linecap="round" stroke-linejoin="round"/>
<path d="M7.27308 3.52649H6.98959C6.63978 3.52649 6.3562 3.81007 6.3562 4.15988V6.6443C6.3562 6.99411 6.63978 7.27769 6.98959 7.27769H7.27308C7.62289 7.27769 7.90647 6.99411 7.90647 6.6443V4.15988C7.90647 3.81007 7.62289 3.52649 7.27308 3.52649Z" stroke="#263238" stroke-width="1.36414" stroke-linecap="round" stroke-linejoin="round"/>
<path d="M7.82186 4.40881H18.5835M22.7322 9.21566V23.0725C22.7322 23.3122 22.5918 23.5066 22.4184 23.5066H3.97023C3.79744 23.5066 3.65704 23.3122 3.65704 23.0725M6.35313 4.40881H3.97077C3.79798 4.40881 3.65704 4.6032 3.65704 4.84349V23.0601" stroke="#263238" stroke-width="1.36414" stroke-linecap="round" stroke-linejoin="round"/>
<path d="M20.1333 4.40881H22.4298C22.5972 4.40881 22.7322 4.6032 22.7322 4.84349V23.0601M3.65704 9.21566H22.7322" stroke="#263238" stroke-width="1.50056" stroke-linecap="round" stroke-linejoin="round"/>
</svg>
